<svg width="310" height="205" viewBox="0 0 310 205" fill="none" xmlns="http://www.w3.org/2000/svg">
    <rect width="310" height="205" fill="#EFF2F4"/>
    <rect x="16" y="57.7109" width="278" height="89.5778" rx="44.7889" fill="#4DBD5C"/>
    <path d="M110.404 83.3829H114.341C116.048 83.3829 117.336 83.6303 118.205 84.125C119.073 84.6197 119.508 85.4734 119.508 86.686C119.508 87.1928 119.417 87.6513 119.236 88.0615C119.061 88.4657 118.805 88.8006 118.467 89.066C118.129 89.3254 117.713 89.5004 117.218 89.5909V89.6814C117.731 89.7719 118.187 89.9317 118.585 90.161C118.989 90.3903 119.306 90.7191 119.535 91.1474C119.77 91.5757 119.888 92.1308 119.888 92.8125C119.888 93.6209 119.695 94.3087 119.309 94.8758C118.929 95.4429 118.383 95.8742 117.671 96.1699C116.965 96.4655 116.126 96.6133 115.155 96.6133H110.404V83.3829ZM112.576 88.8398H114.657C115.641 88.8398 116.322 88.6799 116.702 88.3602C117.083 88.0404 117.273 87.5729 117.273 86.9575C117.273 86.3301 117.046 85.8776 116.594 85.6001C116.147 85.3225 115.436 85.1838 114.458 85.1838H112.576V88.8398ZM112.576 90.5954V94.7943H114.865C115.879 94.7943 116.591 94.5983 117.001 94.2061C117.411 93.814 117.616 93.2831 117.616 92.6134C117.616 92.2032 117.523 91.8472 117.336 91.5456C117.155 91.2439 116.856 91.0117 116.44 90.8488C116.024 90.6798 115.463 90.5954 114.757 90.5954H112.576ZM131.136 86.5955V96.6133H129.462L129.173 95.2649H129.055C128.844 95.6088 128.575 95.8954 128.25 96.1246C127.924 96.3478 127.562 96.5137 127.164 96.6223C126.765 96.737 126.346 96.7943 125.906 96.7943C125.152 96.7943 124.506 96.6676 123.969 96.4142C123.438 96.1548 123.031 95.7566 122.747 95.2197C122.464 94.6827 122.322 93.9889 122.322 93.1383V86.5955H124.458V92.7401C124.458 93.5184 124.615 94.1005 124.928 94.4867C125.248 94.8728 125.743 95.0658 126.413 95.0658C127.058 95.0658 127.571 94.9331 127.951 94.6676C128.331 94.4022 128.599 94.01 128.756 93.4912C128.919 92.9724 129.001 92.3359 129.001 91.5818V86.5955H131.136ZM132.675 86.5955H134.991L137.046 92.3148C137.136 92.5742 137.218 92.8306 137.29 93.084C137.368 93.3313 137.435 93.5757 137.489 93.817C137.549 94.0583 137.598 94.2996 137.634 94.541H137.688C137.749 94.2272 137.833 93.8773 137.942 93.4912C138.056 93.0991 138.183 92.7069 138.322 92.3148L140.294 86.5955H142.584L138.285 97.9888C138.038 98.6404 137.733 99.1954 137.371 99.6539C137.016 100.118 136.593 100.468 136.105 100.704C135.616 100.945 135.058 101.066 134.43 101.066C134.129 101.066 133.866 101.048 133.643 101.011C133.42 100.981 133.23 100.948 133.073 100.912V99.2105C133.2 99.2406 133.36 99.2678 133.553 99.2919C133.746 99.3161 133.945 99.3281 134.15 99.3281C134.53 99.3281 134.859 99.2527 135.136 99.1019C135.414 98.9511 135.649 98.7369 135.842 98.4594C136.035 98.1879 136.195 97.8772 136.322 97.5273L136.675 96.5861L132.675 86.5955ZM157.108 96.6042L155.841 91.9437C155.781 91.7145 155.709 91.437 155.624 91.1112C155.54 90.7854 155.455 90.4506 155.371 90.1067C155.286 89.7568 155.208 89.434 155.136 89.1384C155.069 88.8428 155.018 88.6135 154.982 88.4507H154.909C154.879 88.6135 154.831 88.8428 154.765 89.1384C154.698 89.434 154.623 89.7568 154.538 90.1067C154.454 90.4566 154.369 90.7975 154.285 91.1293C154.207 91.4611 154.134 91.7447 154.068 91.9799L152.737 96.6042H150.403L147.597 86.5865H149.751L151.054 91.5637C151.139 91.9015 151.22 92.2665 151.299 92.6587C151.383 93.0508 151.455 93.4248 151.516 93.7808C151.576 94.1367 151.621 94.4293 151.652 94.6586H151.724C151.748 94.4957 151.781 94.2906 151.823 94.0432C151.866 93.7898 151.914 93.5274 151.968 93.2559C152.023 92.9784 152.077 92.719 152.131 92.4777C152.185 92.2303 152.237 92.0312 152.285 91.8804L153.823 86.5865H156.149L157.624 91.8804C157.691 92.1097 157.763 92.3992 157.841 92.7492C157.92 93.093 157.989 93.4399 158.05 93.7898C158.116 94.1337 158.158 94.4203 158.176 94.6495H158.249C158.273 94.4444 158.315 94.1669 158.375 93.817C158.442 93.461 158.517 93.084 158.602 92.6858C158.686 92.2816 158.773 91.9076 158.864 91.5637L160.194 86.5865H162.312L159.488 96.6042H157.108ZM166.158 86.5955V96.6133H164.031V86.5955H166.158ZM165.108 82.7585C165.434 82.7585 165.714 82.846 165.95 83.021C166.191 83.1959 166.312 83.4976 166.312 83.9259C166.312 84.3482 166.191 84.6499 165.95 84.8309C165.714 85.0058 165.434 85.0933 165.108 85.0933C164.77 85.0933 164.484 85.0058 164.248 84.8309C164.019 84.6499 163.905 84.3482 163.905 83.9259C163.905 83.4976 164.019 83.1959 164.248 83.021C164.484 82.846 164.77 82.7585 165.108 82.7585ZM172.936 95.0749C173.213 95.0749 173.488 95.0507 173.759 95.0025C174.031 94.9482 174.278 94.8848 174.501 94.8124V96.4232C174.266 96.5258 173.962 96.6133 173.587 96.6857C173.213 96.7581 172.824 96.7943 172.42 96.7943C171.853 96.7943 171.343 96.7008 170.891 96.5137C170.438 96.3207 170.079 95.9919 169.814 95.5273C169.548 95.0628 169.416 94.4203 169.416 93.5998V88.2154H168.049V87.2652L169.515 86.5141L170.212 84.3693H171.551V86.5955H174.42V88.2154H171.551V93.5727C171.551 94.0794 171.678 94.4565 171.931 94.7038C172.185 94.9512 172.52 95.0749 172.936 95.0749ZM178.664 82.5323V86.0706C178.664 86.4386 178.652 86.7976 178.628 87.1475C178.61 87.4974 178.589 87.7689 178.565 87.962H178.682C178.893 87.6121 179.153 87.3255 179.461 87.1023C179.768 86.873 180.112 86.7011 180.492 86.5865C180.878 86.4718 181.289 86.4145 181.723 86.4145C182.489 86.4145 183.141 86.5442 183.678 86.8036C184.215 87.057 184.625 87.4522 184.908 87.9891C185.198 88.5261 185.343 89.2229 185.343 90.0796V96.6133H183.216V90.4777C183.216 89.6995 183.056 89.1173 182.736 88.7312C182.417 88.339 181.922 88.143 181.252 88.143C180.607 88.143 180.094 88.2787 179.714 88.5502C179.34 88.8156 179.071 89.2108 178.909 89.7357C178.746 90.2545 178.664 90.888 178.664 91.6361V96.6133H176.538V82.5323H178.664ZM129.571 110.178L125.643 125.613H121.916L119.826 117.505C119.784 117.35 119.727 117.114 119.657 116.798C119.587 116.481 119.513 116.136 119.435 115.763C119.358 115.383 119.288 115.027 119.224 114.697C119.168 114.359 119.129 114.091 119.108 113.894C119.087 114.091 119.045 114.355 118.981 114.686C118.925 115.017 118.858 115.369 118.781 115.742C118.71 116.115 118.64 116.463 118.57 116.787C118.499 117.111 118.443 117.357 118.401 117.526L116.321 125.613H112.605L108.667 110.178H111.887L113.861 118.603C113.917 118.856 113.981 119.159 114.051 119.511C114.128 119.863 114.202 120.232 114.273 120.619C114.35 121 114.417 121.369 114.473 121.728C114.537 122.08 114.582 122.386 114.611 122.647C114.646 122.379 114.691 122.069 114.748 121.717C114.804 121.359 114.864 120.996 114.927 120.63C114.998 120.257 115.068 119.912 115.138 119.595C115.209 119.279 115.272 119.022 115.328 118.825L117.577 110.178H120.671L122.919 118.825C122.969 119.015 123.025 119.272 123.088 119.595C123.159 119.912 123.229 120.257 123.3 120.63C123.37 121.003 123.433 121.369 123.49 121.728C123.553 122.08 123.599 122.386 123.627 122.647C123.676 122.295 123.743 121.869 123.827 121.369C123.919 120.862 124.014 120.359 124.112 119.859C124.218 119.36 124.31 118.941 124.387 118.603L126.351 110.178H129.571ZM134.48 109.185V112.532C134.48 113.116 134.459 113.672 134.417 114.2C134.382 114.728 134.353 115.101 134.332 115.319H134.501C134.755 114.911 135.054 114.58 135.399 114.327C135.751 114.074 136.138 113.887 136.56 113.768C136.982 113.648 137.436 113.588 137.922 113.588C138.774 113.588 139.516 113.739 140.15 114.042C140.783 114.338 141.276 114.806 141.628 115.446C141.98 116.08 142.156 116.903 142.156 117.917V125.613H138.936V118.719C138.936 117.874 138.781 117.237 138.471 116.808C138.161 116.379 137.683 116.164 137.035 116.164C136.388 116.164 135.877 116.315 135.504 116.618C135.131 116.914 134.867 117.354 134.712 117.938C134.558 118.515 134.48 119.222 134.48 120.06V125.613H131.26V109.185H134.48ZM150.306 113.567C151.89 113.567 153.104 113.912 153.949 114.602C154.793 115.291 155.216 116.34 155.216 117.748V125.613H152.967L152.344 124.009H152.259C151.922 124.431 151.577 124.776 151.225 125.043C150.873 125.311 150.468 125.508 150.011 125.634C149.553 125.761 148.997 125.824 148.342 125.824C147.646 125.824 147.019 125.691 146.463 125.423C145.914 125.156 145.481 124.748 145.165 124.199C144.848 123.643 144.689 122.939 144.689 122.087C144.689 120.834 145.129 119.912 146.009 119.321C146.889 118.723 148.209 118.392 149.968 118.328L152.017 118.265V117.748C152.017 117.128 151.855 116.674 151.531 116.386C151.207 116.097 150.757 115.953 150.179 115.953C149.609 115.953 149.05 116.034 148.501 116.196C147.952 116.358 147.403 116.562 146.854 116.808L145.787 114.633C146.414 114.302 147.114 114.042 147.888 113.852C148.67 113.662 149.476 113.567 150.306 113.567ZM152.017 120.144L150.771 120.187C149.729 120.215 149.004 120.401 148.596 120.746C148.195 121.091 147.994 121.545 147.994 122.108C147.994 122.601 148.138 122.953 148.427 123.164C148.715 123.368 149.092 123.47 149.557 123.47C150.246 123.47 150.827 123.266 151.299 122.858C151.777 122.449 152.017 121.869 152.017 121.116V120.144ZM163.514 123.259C163.866 123.259 164.207 123.224 164.538 123.153C164.876 123.083 165.21 122.995 165.541 122.889V125.286C165.196 125.441 164.767 125.568 164.253 125.666C163.746 125.772 163.19 125.824 162.585 125.824C161.881 125.824 161.248 125.712 160.684 125.487C160.128 125.254 159.688 124.857 159.365 124.294C159.048 123.723 158.89 122.932 158.89 121.918V116.227H157.348V114.866L159.122 113.789L160.051 111.297H162.11V113.81H165.414V116.227H162.11V121.918C162.11 122.369 162.236 122.706 162.49 122.932C162.75 123.15 163.092 123.259 163.514 123.259ZM176.173 122.108C176.173 122.911 175.983 123.59 175.602 124.146C175.229 124.695 174.67 125.114 173.924 125.402C173.178 125.684 172.249 125.824 171.137 125.824C170.313 125.824 169.606 125.772 169.014 125.666C168.43 125.56 167.839 125.385 167.241 125.138V122.478C167.881 122.766 168.568 123.006 169.3 123.196C170.039 123.379 170.686 123.47 171.242 123.47C171.869 123.47 172.316 123.379 172.583 123.196C172.857 123.006 172.995 122.759 172.995 122.457C172.995 122.259 172.938 122.083 172.826 121.929C172.72 121.767 172.488 121.587 172.129 121.39C171.77 121.186 171.207 120.922 170.44 120.598C169.701 120.289 169.092 119.975 168.613 119.659C168.142 119.342 167.79 118.969 167.557 118.54C167.332 118.103 167.22 117.551 167.22 116.882C167.22 115.791 167.642 114.971 168.487 114.422C169.338 113.866 170.475 113.588 171.897 113.588C172.629 113.588 173.326 113.662 173.987 113.81C174.656 113.958 175.342 114.193 176.046 114.517L175.075 116.84C174.49 116.586 173.938 116.379 173.417 116.217C172.903 116.055 172.379 115.974 171.844 115.974C171.372 115.974 171.017 116.037 170.778 116.164C170.538 116.291 170.419 116.484 170.419 116.745C170.419 116.935 170.478 117.104 170.598 117.252C170.725 117.399 170.964 117.565 171.316 117.748C171.675 117.924 172.199 118.152 172.889 118.434C173.558 118.709 174.138 118.997 174.631 119.3C175.124 119.595 175.504 119.965 175.771 120.408C176.039 120.845 176.173 121.411 176.173 122.108ZM188.388 125.613L187.269 121.939H181.642L180.522 125.613H176.996L182.444 110.115H186.445L191.914 125.613H188.388ZM186.488 119.194L185.368 115.605C185.298 115.365 185.203 115.059 185.083 114.686C184.971 114.306 184.855 113.922 184.735 113.535C184.622 113.141 184.531 112.8 184.46 112.511C184.39 112.8 184.291 113.159 184.165 113.588C184.045 114.01 183.929 114.412 183.816 114.792C183.704 115.172 183.623 115.443 183.574 115.605L182.465 119.194H186.488ZM200.181 113.588C201.511 113.588 202.585 114.105 203.401 115.14C204.224 116.175 204.636 117.691 204.636 119.69C204.636 121.028 204.443 122.154 204.056 123.069C203.668 123.977 203.134 124.663 202.451 125.128C201.768 125.592 200.983 125.824 200.096 125.824C199.526 125.824 199.037 125.754 198.629 125.613C198.221 125.465 197.872 125.279 197.584 125.054C197.295 124.821 197.045 124.575 196.834 124.315H196.665C196.721 124.596 196.764 124.885 196.792 125.18C196.82 125.476 196.834 125.765 196.834 126.046V130.808H193.614V113.81H196.232L196.686 115.341H196.834C197.045 115.024 197.302 114.732 197.605 114.464C197.907 114.197 198.27 113.986 198.692 113.831C199.122 113.669 199.618 113.588 200.181 113.588ZM199.146 116.164C198.583 116.164 198.136 116.28 197.805 116.513C197.475 116.745 197.232 117.093 197.077 117.558C196.929 118.022 196.848 118.61 196.834 119.321V119.669C196.834 120.429 196.904 121.073 197.045 121.601C197.193 122.129 197.436 122.53 197.774 122.805C198.119 123.079 198.59 123.217 199.188 123.217C199.681 123.217 200.086 123.079 200.403 122.805C200.719 122.53 200.955 122.129 201.11 121.601C201.272 121.066 201.353 120.415 201.353 119.648C201.353 118.494 201.173 117.625 200.814 117.04C200.455 116.456 199.899 116.164 199.146 116.164ZM213.864 113.588C215.194 113.588 216.267 114.105 217.084 115.14C217.907 116.175 218.319 117.691 218.319 119.69C218.319 121.028 218.125 122.154 217.738 123.069C217.351 123.977 216.816 124.663 216.134 125.128C215.451 125.592 214.666 125.824 213.779 125.824C213.209 125.824 212.72 125.754 212.312 125.613C211.903 125.465 211.555 125.279 211.266 125.054C210.978 124.821 210.728 124.575 210.517 124.315H210.348C210.404 124.596 210.447 124.885 210.475 125.18C210.503 125.476 210.517 125.765 210.517 126.046V130.808H207.297V113.81H209.915L210.369 115.341H210.517C210.728 115.024 210.985 114.732 211.288 114.464C211.59 114.197 211.953 113.986 212.375 113.831C212.804 113.669 213.301 113.588 213.864 113.588ZM212.829 116.164C212.266 116.164 211.819 116.28 211.488 116.513C211.157 116.745 210.915 117.093 210.76 117.558C210.612 118.022 210.531 118.61 210.517 119.321V119.669C210.517 120.429 210.587 121.073 210.728 121.601C210.876 122.129 211.119 122.53 211.457 122.805C211.801 123.079 212.273 123.217 212.871 123.217C213.364 123.217 213.769 123.079 214.085 122.805C214.402 122.53 214.638 122.129 214.793 121.601C214.955 121.066 215.036 120.415 215.036 119.648C215.036 118.494 214.856 117.625 214.497 117.04C214.138 116.456 213.582 116.164 212.829 116.164Z" fill="white"/>
    <path d="M76.0367 107.096C75.4604 106.809 72.6262 105.421 72.098 105.23C71.5696 105.039 71.1853 104.943 70.801 105.517C70.4167 106.091 69.3122 107.384 68.9758 107.766C68.6396 108.149 68.3034 108.197 67.7269 107.91C67.1505 107.623 65.2931 107.017 63.0913 105.063C61.3777 103.542 60.2209 101.663 59.8847 101.088C59.5483 100.514 59.8487 100.204 60.1375 99.9178C60.3968 99.6609 60.7138 99.2475 61.0021 98.9129C61.2901 98.5774 61.3864 98.3384 61.5787 97.9553C61.7707 97.5728 61.6744 97.2374 61.5305 96.9505C61.3864 96.6631 60.2335 93.8395 59.753 92.6912C59.2853 91.5727 58.8101 91.7238 58.4562 91.7066C58.1205 91.6894 57.7355 91.6859 57.3514 91.6859C56.9671 91.6859 56.3427 91.83 55.8142 92.4038C55.286 92.9781 53.7968 94.3661 53.7968 97.1895C53.7968 100.013 55.8624 102.741 56.1507 103.124C56.4387 103.507 60.2153 109.302 65.9977 111.786C67.3729 112.377 68.4469 112.73 69.2839 112.995C70.6648 113.431 71.9214 113.37 72.9145 113.222C74.022 113.057 76.325 111.834 76.8053 110.494C77.2856 109.154 77.2856 108.006 77.1415 107.766C76.9976 107.527 76.6133 107.384 76.0367 107.096ZM65.5192 121.388H65.5113C62.0706 121.387 58.6959 120.467 55.7519 118.728L55.0517 118.315L47.7946 120.209L49.7317 113.168L49.2757 112.446C47.3563 109.407 46.3427 105.895 46.3441 102.29C46.3483 91.7686 54.9501 83.2087 65.5267 83.2087C70.6482 83.2103 75.4625 85.1982 79.0828 88.8051C82.7031 92.412 84.6956 97.2067 84.6937 102.305C84.6892 112.828 76.0876 121.388 65.5192 121.388ZM65.5188 79.3307C52.8032 79.3307 42.4542 89.6297 42.449 102.288C42.4474 106.335 43.5096 110.285 45.5283 113.766L42.2554 125.664L54.4852 122.472C57.8546 124.3 61.6485 125.264 65.5099 125.266H65.5192C78.2336 125.266 88.5836 114.966 88.5887 102.307C88.591 96.1725 86.1937 90.4037 81.838 86.0642C77.4825 81.7247 71.6901 79.3338 65.5188 79.3307Z" fill="white"/>
</svg>
